<?xml version="1.0" encoding="iso-8859-1"?>
<!-- Generator: Adobe Illustrator 19.0.0, SVG Export Plug-In . SVG Version: 6.00 Build 0)  -->
<svg version="1.1" id="Layer_1" xmlns="http://www.w3.org/2000/svg" xmlns:xlink="http://www.w3.org/1999/xlink" x="0px" y="0px"
	 viewBox="0 0 511.992 511.992" style="enable-background:new 0 0 511.992 511.992;" xml:space="preserve">
<g>
	<path style="fill:#CCD1D9;" d="M394.649,407.464c0,17.499-14.171,31.67-31.655,31.67s-31.656-14.171-31.656-31.67
		c0-17.484,14.172-31.656,31.656-31.656S394.649,389.978,394.649,407.464z"/>
	<path style="fill:#CCD1D9;" d="M463.164,407.464c0,17.499-14.172,31.67-31.672,31.67c-17.469,0-31.655-14.171-31.655-31.67
		c0-17.484,14.187-31.656,31.655-31.656C448.992,375.807,463.164,389.978,463.164,407.464z"/>
</g>
<rect x="113.996" y="210.137" style="fill:#4FC2E9;" width="128" height="54.655"/>
<polygon style="fill:#656D78;" points="473.336,283.449 445.336,270.121 379.994,270.121 250.668,270.121 241.996,373.447 
	265.996,368.119 293.995,389.447 340.666,396.119 474.664,379.447 483.992,327.448 "/>
<g>
	<polygon style="fill:#FC6E51;" points="113.998,373.589 53,391.135 53,203.123 113.998,203.123 	"/>
	<polygon style="fill:#FC6E51;" points="237.332,381.792 233.332,387.464 213.004,387.464 182.662,378.135 148.67,387.464 
		135.998,387.464 122.998,381.792 122.998,270.121 237.332,270.121 	"/>
	<rect x="375.336" y="203.127" style="fill:#FC6E51;" width="39.33" height="61.67"/>
</g>
<polygon style="fill:#F5F7FA;" points="433.992,126.14 405.993,112.14 414.664,88.14 397.993,72.141 24.672,75.469 14,93.468 
	16.672,110.14 35.336,117.312 197.333,110.797 305.995,121.468 289.339,130.141 287.995,149.467 312.666,156.14 421.992,156.14 
	436.664,144.796 "/>
<g>
	<path style="fill:#CCD1D9;" d="M126.998,401.119c0,17.499-14.18,31.671-31.664,31.671S63.67,418.618,63.67,401.119
		c0-17.484,14.18-31.656,31.664-31.656S126.998,383.635,126.998,401.119z"/>
	<path style="fill:#CCD1D9;" d="M211.833,405.792c0,17.499-14.18,31.67-31.664,31.67s-31.664-14.171-31.664-31.67
		c0-17.484,14.179-31.656,31.664-31.656C197.653,374.135,211.833,388.307,211.833,405.792z"/>
	<path style="fill:#CCD1D9;" d="M297.495,405.792c0,17.499-14.171,31.67-31.655,31.67s-31.664-14.171-31.664-31.67
		c0-17.484,14.179-31.656,31.664-31.656S297.495,388.307,297.495,405.792z"/>
</g>
<polygon style="fill:#4FC2E9;" points="465.492,264.793 465.492,277.621 482.492,307.621 499.491,307.621 499.491,267.121 "/>
<g>
	<path style="fill:#080808;" d="M277.371,138.624c0,17.75,14.374,32,31.999,32h106.622c17.625,0,32-14.25,32-32
		c0-14.75-10-27.124-23.625-30.874c1.5-3.625,2.25-7.625,2.25-11.75c0-17.625-14.375-32-31.999-32H32c-17.625,0-32,14.375-32,32
		s14.375,32,32,32h247.121C277.996,131.375,277.371,134.875,277.371,138.624z M32,106.624c-5.875,0-10.625-4.75-10.625-10.625
		S26.125,85.374,32,85.374h362.618c5.875,0,10.75,4.75,10.75,10.625s-4.875,10.625-10.75,10.625s-10.624,4.875-10.624,10.75
		s4.749,10.625,10.624,10.625h21.374c5.875,0,10.625,4.75,10.625,10.625s-4.75,10.75-10.625,10.75H309.37
		c-5.875,0-10.75-4.875-10.75-10.75s4.875-10.625,10.75-10.625c5.874,0,10.624-4.75,10.624-10.625s-4.75-10.75-10.624-10.75
		C309.37,106.624,32,106.624,32,106.624z"/>
	<path style="fill:#080808;" d="M501.366,255.997h-63.999h-4.375h-6.375v-53.374c0-5.875-4.75-10.625-10.625-10.625h-42.623
		c-5.875,0-10.75,4.75-10.75,10.625v53.374H255.996v-53.374c0-5.875-4.75-10.625-10.625-10.625H117.373H53.375
		c-5.875,0-10.75,4.75-10.75,10.625v191.622c0,5.875,4.875,10.625,10.75,10.625l0,0c0,0.125,0,0.25,0,0.5
		c0,23.499,19.125,42.623,42.624,42.623c19.875,0,36.625-13.624,41.374-31.999h2.625c4.75,18.375,21.5,31.999,41.375,31.999
		c19.75,0,36.499-13.624,41.249-31.999h2.75c4.75,18.375,21.5,31.999,41.25,31.999c23.624,0,42.749-19.124,42.749-42.623h10.624
		c0,23.499,19.125,42.623,42.625,42.623c12.75,0,24.25-5.625,31.999-14.499c7.875,8.874,19.249,14.499,31.999,14.499
		c23.625,0,42.75-19.124,42.75-42.623c0-3.5-0.5-6.75-1.25-9.875c13.625-9.75,22.499-25.625,22.499-43.5v-31.999h10.75
		c5.875,0,10.625-4.75,10.625-10.624v-42.75C511.991,260.746,507.241,255.997,501.366,255.997z M383.994,213.373h21.374v42.624
		h-21.374V213.373z M191.997,213.373h42.625v42.624h-42.625V213.373z M127.998,213.373h42.624v42.624h-42.624L127.998,213.373
		L127.998,213.373z M234.621,277.371v99.748c-1.75,2-3.25,4.125-4.625,6.375h-12c-7.5-12.5-21.125-20.875-36.624-20.875
		c-15.625,0-29.25,8.375-36.75,20.875h-12c-1.375-2.25-2.875-4.375-4.625-6.375v-99.748H234.621z M199.747,394.619h-36.875
		c3.625-6.375,10.625-10.625,18.5-10.625S196.122,388.244,199.747,394.619z M63.999,341.369c5.875,0,10.625-4.749,10.625-10.749
		c0-5.875-4.75-10.625-10.625-10.625v-21.374c5.875,0,10.625-4.75,10.625-10.625s-4.75-10.625-10.625-10.625v-21.375
		c5.875,0,10.625-4.75,10.625-10.625s-4.75-10.75-10.625-10.75v-21.25h42.625v150.622c-3.375-0.875-7-1.375-10.625-1.375
		c-12.75,0-24.125,5.625-32,14.5V341.369z M95.999,426.618c-11.75,0-21.375-9.5-21.375-21.249c0-11.75,9.625-21.375,21.375-21.375
		c7.875,0,14.75,4.25,18.5,10.625h-18.5c-5.875,0-10.625,4.875-10.625,10.75s4.75,10.624,10.625,10.624h18.5
		C110.749,422.368,103.874,426.618,95.999,426.618z M181.372,426.618c-7.875,0-14.875-4.25-18.5-10.625h36.875
		C196.122,422.368,189.247,426.618,181.372,426.618z M266.621,426.618c-7.875,0-14.75-4.25-18.375-10.625h18.375
		c5.875,0,10.75-4.749,10.75-10.624s-4.875-10.75-10.75-10.75h-18.375c3.625-6.375,10.5-10.625,18.375-10.625
		c11.75,0,21.374,9.625,21.374,21.375C287.995,417.118,278.371,426.618,266.621,426.618z M362.619,426.618
		c-11.75,0-21.25-9.5-21.25-21.249h10.625c0,2.75,1,5.375,3.125,7.499c4.125,4.125,10.875,4.125,15.125,0
		c2-2.124,3.125-4.749,3.125-7.499h10.625C383.994,417.118,374.369,426.618,362.619,426.618z M426.617,426.618
		c-11.75,0-21.249-9.5-21.249-21.249h10.624c0,2.75,1,5.375,3.125,7.499c4.125,4.125,10.875,4.125,15.125,0
		c2-2.124,3.125-4.749,3.125-7.499l0,0c3.625,0,7.125-0.375,10.625-1.125c0,0.375,0,0.75,0,1.125
		C447.992,417.118,438.367,426.618,426.617,426.618z M469.367,351.994c0,17.625-14.375,32-32,32H303.62
		c-7.375-12.75-21.249-21.375-36.999-21.375c-3.625,0-7.25,0.5-10.625,1.375v-86.623h117.373h42.623h21.375c17.625,0,32,14.25,32,32
		L469.367,351.994L469.367,351.994z M490.616,298.621h-1c-1.625-7.875-4.999-15.125-9.624-21.25h10.624V298.621z"/>
</g>
<g>
</g>
<g>
</g>
<g>
</g>
<g>
</g>
<g>
</g>
<g>
</g>
<g>
</g>
<g>
</g>
<g>
</g>
<g>
</g>
<g>
</g>
<g>
</g>
<g>
</g>
<g>
</g>
<g>
</g>
</svg>
