<svg xmlns="http://www.w3.org/2000/svg" viewBox="0 0 511.992 511.992"><path d="M394.649 407.464c0 17.499-14.171 31.67-31.655 31.67s-31.656-14.171-31.656-31.67c0-17.484 14.172-31.656 31.656-31.656s31.655 14.17 31.655 31.656zm68.515 0c0 17.499-14.172 31.67-31.672 31.67-17.469 0-31.655-14.171-31.655-31.67 0-17.484 14.187-31.656 31.655-31.656 17.5-.001 31.672 14.17 31.672 31.656z" fill="#ccd1d9"/><path fill="#4fc2e9" d="M113.996 210.137h128v54.655h-128z"/><path fill="#656d78" d="M473.336 283.449l-28-13.328H250.668l-8.672 103.326 24-5.328 27.999 21.328 46.671 6.672 133.998-16.672 9.328-51.999z"/><path d="M113.998 373.589L53 391.135V203.123h60.998zm123.334 8.203l-4 5.672h-20.328l-30.342-9.329-33.992 9.329h-12.672l-13-5.672V270.121h114.334zm138.004-178.665h39.33v61.67h-39.33z" fill="#fc6e51"/><path fill="#f5f7fa" d="M433.992 126.14l-27.999-14 8.671-24-16.671-15.999-373.321 3.328L14 93.468l2.672 16.672 18.664 7.172 161.997-6.515 108.662 10.671-16.656 8.673-1.344 19.326 24.671 6.673h109.326l14.672-11.344z"/><path d="M126.998 401.119c0 17.499-14.18 31.671-31.664 31.671S63.67 418.618 63.67 401.119c0-17.484 14.18-31.656 31.664-31.656s31.664 14.172 31.664 31.656zm84.835 4.673c0 17.499-14.18 31.67-31.664 31.67s-31.664-14.171-31.664-31.67c0-17.484 14.179-31.656 31.664-31.656 17.484-.001 31.664 14.171 31.664 31.656zm85.662 0c0 17.499-14.171 31.67-31.655 31.67s-31.664-14.171-31.664-31.67c0-17.484 14.179-31.656 31.664-31.656s31.655 14.171 31.655 31.656z" fill="#ccd1d9"/><path fill="#4fc2e9" d="M465.492 264.793v12.828l17 30h16.999v-40.5z"/><path d="M277.371 138.624c0 17.75 14.374 32 31.999 32h106.622c17.625 0 32-14.25 32-32 0-14.75-10-27.124-23.625-30.874 1.5-3.625 2.25-7.625 2.25-11.75 0-17.625-14.375-32-31.999-32H32C14.375 64 0 78.375 0 96s14.375 32 32 32h247.121c-1.125 3.375-1.75 6.875-1.75 10.624zM32 106.624c-5.875 0-10.625-4.75-10.625-10.625S26.125 85.374 32 85.374h362.618c5.875 0 10.75 4.75 10.75 10.625s-4.875 10.625-10.75 10.625-10.624 4.875-10.624 10.75 4.749 10.625 10.624 10.625h21.374c5.875 0 10.625 4.75 10.625 10.625s-4.75 10.75-10.625 10.75H309.37c-5.875 0-10.75-4.875-10.75-10.75s4.875-10.625 10.75-10.625c5.874 0 10.624-4.75 10.624-10.625s-4.75-10.75-10.624-10.75H32zm469.366 149.373h-74.749v-53.374c0-5.875-4.75-10.625-10.625-10.625h-42.623c-5.875 0-10.75 4.75-10.75 10.625v53.374H255.996v-53.374c0-5.875-4.75-10.625-10.625-10.625H53.375c-5.875 0-10.75 4.75-10.75 10.625v191.622c0 5.875 4.875 10.625 10.75 10.625v.5c0 23.499 19.125 42.623 42.624 42.623 19.875 0 36.625-13.624 41.374-31.999h2.625c4.75 18.375 21.5 31.999 41.375 31.999 19.75 0 36.499-13.624 41.249-31.999h2.75c4.75 18.375 21.5 31.999 41.25 31.999 23.624 0 42.749-19.124 42.749-42.623h10.624c0 23.499 19.125 42.623 42.625 42.623 12.75 0 24.25-5.625 31.999-14.499 7.875 8.874 19.249 14.499 31.999 14.499 23.625 0 42.75-19.124 42.75-42.623 0-3.5-.5-6.75-1.25-9.875 13.625-9.75 22.499-25.625 22.499-43.5v-31.999h10.75c5.875 0 10.625-4.75 10.625-10.624v-42.75a10.617 10.617 0 0 0-10.626-10.625zm-117.372-42.624h21.374v42.624h-21.374v-42.624zm-191.997 0h42.625v42.624h-42.625v-42.624zm-63.999 0h42.624v42.624h-42.624v-42.624zm106.623 63.998v99.748c-1.75 2-3.25 4.125-4.625 6.375h-12c-7.5-12.5-21.125-20.875-36.624-20.875-15.625 0-29.25 8.375-36.75 20.875h-12c-1.375-2.25-2.875-4.375-4.625-6.375v-99.748h106.624zm-34.874 117.248h-36.875c3.625-6.375 10.625-10.625 18.5-10.625s14.75 4.25 18.375 10.625zm-135.748-53.25c5.875 0 10.625-4.749 10.625-10.749 0-5.875-4.75-10.625-10.625-10.625v-21.374c5.875 0 10.625-4.75 10.625-10.625s-4.75-10.625-10.625-10.625v-21.375c5.875 0 10.625-4.75 10.625-10.625s-4.75-10.75-10.625-10.75v-21.25h42.625v150.622c-3.375-.875-7-1.375-10.625-1.375-12.75 0-24.125 5.625-32 14.5v-35.749zm32 85.249c-11.75 0-21.375-9.5-21.375-21.249 0-11.75 9.625-21.375 21.375-21.375 7.875 0 14.75 4.25 18.5 10.625h-18.5c-5.875 0-10.625 4.875-10.625 10.75s4.75 10.624 10.625 10.624h18.5c-3.75 6.375-10.625 10.625-18.5 10.625zm85.373 0c-7.875 0-14.875-4.25-18.5-10.625h36.875c-3.625 6.375-10.5 10.625-18.375 10.625zm85.249 0c-7.875 0-14.75-4.25-18.375-10.625h18.375c5.875 0 10.75-4.749 10.75-10.624s-4.875-10.75-10.75-10.75h-18.375c3.625-6.375 10.5-10.625 18.375-10.625 11.75 0 21.374 9.625 21.374 21.375 0 11.749-9.624 21.249-21.374 21.249zm95.998 0c-11.75 0-21.25-9.5-21.25-21.249h10.625c0 2.75 1 5.375 3.125 7.499 4.125 4.125 10.875 4.125 15.125 0 2-2.124 3.125-4.749 3.125-7.499h10.625c0 11.749-9.625 21.249-21.375 21.249zm63.998 0c-11.75 0-21.249-9.5-21.249-21.249h10.624c0 2.75 1 5.375 3.125 7.499 4.125 4.125 10.875 4.125 15.125 0 2-2.124 3.125-4.749 3.125-7.499 3.625 0 7.125-.375 10.625-1.125v1.125c0 11.749-9.625 21.249-21.375 21.249zm42.75-74.624c0 17.625-14.375 32-32 32H303.62c-7.375-12.75-21.249-21.375-36.999-21.375-3.625 0-7.25.5-10.625 1.375v-86.623h181.371c17.625 0 32 14.25 32 32v42.623zm21.249-53.373h-1a53.147 53.147 0 0 0-9.624-21.25h10.624v21.25z" fill="#080808"/></svg>